<svg xmlns="http://www.w3.org/2000/svg" width="800" height="450" viewBox="0 0 800 450">
  <rect width="800" height="450" rx="24" fill="#fbf6ee" />
  <text x="60" y="60" font-family="Fraunces, serif" font-size="26" fill="#1b1a17">Benchmarks</text>

  <rect x="60" y="100" width="310" height="290" rx="18" fill="#ffffff" stroke="#b85c38" stroke-width="2" />
  <rect x="430" y="100" width="310" height="290" rx="18" fill="#ffffff" stroke="#b85c38" stroke-width="2" />

  <text x="90" y="145" font-family="IBM Plex Sans, Arial" font-size="18" fill="#1b1a17">COCO BBOB</text>
  <text x="90" y="170" font-family="IBM Plex Sans, Arial" font-size="14" fill="#1b1a17">Bi-objective suite</text>

  <polyline points="100,310 140,260 180,280 220,230 260,250 300,210" fill="none" stroke="#b85c38" stroke-width="3" />
  <circle cx="140" cy="260" r="5" fill="#1b1a17" />
  <circle cx="220" cy="230" r="5" fill="#1b1a17" />
  <circle cx="300" cy="210" r="5" fill="#1b1a17" />

  <text x="460" y="145" font-family="IBM Plex Sans, Arial" font-size="18" fill="#1b1a17">dEchorate</text>
  <text x="460" y="170" font-family="IBM Plex Sans, Arial" font-size="14" fill="#1b1a17">Room impulse response</text>

  <rect x="470" y="210" width="180" height="120" rx="14" fill="#f4e6d7" stroke="#1b1a17" stroke-width="1" />
  <line x1="520" y1="210" x2="520" y2="330" stroke="#1b1a17" stroke-width="1" />
  <line x1="570" y1="210" x2="570" y2="330" stroke="#1b1a17" stroke-width="1" />
  <line x1="620" y1="210" x2="620" y2="330" stroke="#1b1a17" stroke-width="1" />
  <circle cx="500" cy="270" r="8" fill="#b85c38" />
  <circle cx="610" cy="285" r="8" fill="#b85c38" />
</svg>
