<svg xmlns="http://www.w3.org/2000/svg" width="800" height="450" viewBox="0 0 800 450">
  <defs>
    <linearGradient id="bg" x1="0" x2="1" y1="0" y2="1">
      <stop offset="0%" stop-color="#fffdf7" />
      <stop offset="100%" stop-color="#f2e4d5" />
    </linearGradient>
  </defs>
  <rect width="800" height="450" rx="24" fill="url(#bg)" />

  <text x="60" y="60" font-family="Fraunces, serif" font-size="26" fill="#1b1a17">Propose-Check Pipeline</text>

  <rect x="60" y="110" width="180" height="90" rx="14" fill="#ffffff" stroke="#b85c38" stroke-width="2" />
  <rect x="310" y="110" width="180" height="90" rx="14" fill="#ffffff" stroke="#b85c38" stroke-width="2" />
  <rect x="560" y="110" width="180" height="90" rx="14" fill="#ffffff" stroke="#b85c38" stroke-width="2" />

  <text x="85" y="155" font-family="IBM Plex Sans, Arial" font-size="18" fill="#1b1a17">Forward data</text>
  <text x="335" y="155" font-family="IBM Plex Sans, Arial" font-size="18" fill="#1b1a17">Inverse model</text>
  <text x="595" y="155" font-family="IBM Plex Sans, Arial" font-size="18" fill="#1b1a17">Candidates</text>

  <line x1="240" y1="155" x2="310" y2="155" stroke="#b85c38" stroke-width="3" />
  <polygon points="310,155 295,147 295,163" fill="#b85c38" />

  <line x1="490" y1="155" x2="560" y2="155" stroke="#b85c38" stroke-width="3" />
  <polygon points="560,155 545,147 545,163" fill="#b85c38" />

  <rect x="200" y="260" width="400" height="120" rx="18" fill="#ffffff" stroke="#1b1a17" stroke-width="2" />
  <text x="235" y="310" font-family="IBM Plex Sans, Arial" font-size="18" fill="#1b1a17">Forward verification + ranking</text>
  <text x="235" y="340" font-family="JetBrains Mono, monospace" font-size="16" fill="#b85c38">E_Y = d(f(x), y*)</text>

  <line x1="650" y1="200" x2="520" y2="260" stroke="#1b1a17" stroke-width="3" />
  <polygon points="520,260 528,244 540,256" fill="#1b1a17" />
</svg>
